<svg id="Capa_1" enable-background="new 0 0 512 512" height="512" viewBox="0 0 512 512" width="512" xmlns="http://www.w3.org/2000/svg"><g><g><path d="m504.5 58.99v298.68h-490.989l-.341-297.723c0-11.05 3.28-20.957 14.33-20.957h457c11.05 0 20 8.95 20 20z" fill="#faf8f8"/><path d="m330.815 171.116v92.923h-149.714v-92.943z" fill="#b27a49"/><path d="m195.319 142.096-10.634 1.89c-7.018 0-12.707 5.689-12.707 12.707v1.702c0 13.381 10.848 24.229 24.229 24.229l7.074.377h105.439l7.074-.377c13.381 0 24.229-10.848 24.229-24.229v-1.702c0-7.018-5.689-12.707-12.707-12.707l-8.836-1.188z" fill="#f2bb88"/><path d="m226.087 241.484 3.725-26.273 52.341-.042 3.199 26.054-29.363 35.587z" fill="#f2bb88"/><path d="m356.255 316.5-6.546-36.671c-1.97-10.437-9.45-18.982-19.533-22.317l-8.877-2.948-16.98-.426-48.929 2.904-51.064 1.692-14.745-3.788-7.758 2.566c-10.084 3.335-17.563 11.881-19.533 22.317l-6.546 36.671 102.495 29.917z" fill="#ffbf54"/><path d="m314.15 273.69-31.7 25.48c-1.77 1.42-3.77 2.52-5.88 3.27-2.12.75-4.37 1.14-6.63 1.14-5.59 0-10.77-2.33-14.47-6.2-3.7 3.87-8.88 6.2-14.46 6.2-4.53 0-8.98-1.57-12.52-4.41l-31.7-25.48c-5.68-4.57-8.34-11.75-7.21-18.75l20.236-6.738 45.574 8.841 44.288-9.735 21.621 7.253c1.291 7.119-1.359 14.479-7.149 19.129z" fill="#ffa442"/><path d="m273.054 287.475 31.697-25.48c1.676-1.347 2.302-3.615 1.555-5.631l-5.99-16.162c-1.13-3.048-4.684-4.407-7.559-2.889l-37.366 19.729 9.813 28.182c1.136 3.262 5.158 4.415 7.85 2.251z" fill="#ffbf54"/><path d="m237.89 287.475-31.697-25.48c-1.676-1.347-2.302-3.615-1.555-5.631l5.99-16.162c1.13-3.048 4.684-4.407 7.559-2.889l37.366 19.729-9.813 28.182c-1.136 3.262-5.159 4.415-7.85 2.251z" fill="#ffbf54"/><path d="m194.696 143.986c1.249 43.919 28.218 79.01 61.304 79.01 33.134 0 60.133-35.192 61.309-79.2l-60.963-59.906z" fill="#f2d1a5"/><path d="m330.815 144.476-11.039-.535c-25.97-.987-47.471-18.098-50.987-40.356-.597-3.777-4.53-3.249-5.239-.834-4.388 14.935-36.321 41.235-68.853 41.235l-13.595.513v-1.341c0-11.013 1.959-21.294 5.806-30.419 1.412-3.349 3.255-6.496 5.371-9.451 6.489-9.059 13.576-16.077 21.372-20.719 11.299-6.428 25.45-10.07 42.308-10.07 48.432 0 74.857 30.455 74.857 70.659v1.318z" fill="#c48958"/><path d="m209.99 128.39c18.57 0 36.95-8.57 50.11-18.71-9.8 14.64-36.38 33.53-63.71 34.28-.56.02-1.13.03-1.69.03l-13.6.51v-1.34c0-11.01 1.96-21.3 5.81-30.42 1.41-3.35 3.25-6.5 5.37-9.45 5.21-7.27 10.8-13.23 16.84-17.7 1.48-1.1 2.99-2.1 4.53-3.02 11.3-6.43 25.45-10.07 42.31-10.07 2.58 0 5.11.09 7.56.26-13.5.95-25.05 4.39-34.58 9.81-7.8 4.64-14.88 11.66-21.37 20.72-2.12 2.95-3.96 6.1-5.37 9.45-1.834 4.277-3.169 8.873-4.171 13.602-.272 1.282.727 2.482 2.037 2.427 3.57-.15 9.661-.37 9.924-.379z" fill="#b27a49"/><path d="m293.596 439.436-8.969-27.895-.002-.001h.005l-7.611-23.672-21.885-13.073-20.369 13.746-16.365 50.899h24.18l.001-.004z" fill="#3f597d"/><path d="m334.005 451.09c-4.442-9.474-14.111-16.012-25.261-16.015h-93.064l-11.411 4.198c-1.488 0-24.035 8.671-24.035 22.611 0 5.52 4.48 10 10 10l132.979-1.064c5.52 0 10-4.48 10-10 0-2.059 3.243-1.876 2.818-3.809-.454-2.068-1.139-4.051-2.026-5.921z" fill="#5d748a"/><path d="m336.68 462.944c.013 5.536-4.464 10.066-10 10.066h-141.36c-5.513 0-9.996-4.466-10-9.979-.01-13.949 10.203-25.52 23.56-27.621 1.43-.22 2.89-.34 4.38-.34h12.42l-6.878 9.124c-3.974 5.271-.213 12.816 6.388 12.816h120.84c.425 1.909.645 3.897.65 5.934z" fill="#3f597d"/><path d="m27.5 337.67v-298.68c-11.05 0-20 8.95-20 20v298.68h6.01 13.99 477v-16h-473c-2.209 0-4-1.791-4-4z" fill="#f0e9e6"/><g fill="#aad8de"><path d="m365.5 92.042c0-8.284 6.716-15 15-15h75.947c8.284 0 15 6.716 15 15v94c0 8.284-6.716 15-15 15h-11.97c-.586 0-1.158.171-1.648.493l-35.682 23.452c-1.995 1.311-4.648-.12-4.648-2.507v-18.438c0-1.657-1.343-3-3-3h-19c-8.284 0-15-6.716-15-15v-94z"/><path d="m213.673 358.138-80.928-.468v-33.01c0-5.523-.632-9.532 4.891-9.532h66.037c5.523 0 10 4.477 10 10z"/><path d="m299.019 358.138h-85.346l2.136-32c0-5.523 4.477-10 10-10l1.861-1.011h61.349c5.523 0 10 4.477 10 10z"/></g><path d="m309.02 340.66v17.478l-57.505 6.128-37.845-6.128v-33.01c0-5.523 4.477-10 10-10h4v18.532c0 3.866 3.134 7 7 7z" fill="#94ccd4"/><path d="m382.106 358.819-83.088-.681 4.279-31.829c0-5.523.199-9.021 5.722-9.021l4-2.16h61.344c5.523 0 10 4.477 10 10v19.01z" fill="#aad8de"/><path d="m223.67 341.66v16.478l-56.017 6.128-40.013-6.128v-33.01c0-5.52 4.47-10 10-10h4v19.532c0 3.866 3.134 7 7 7z" fill="#94ccd4"/><path d="m384.36 341.66v16.478l-51.19 7.15-34.15-7.15v-33.01c0-5.523 4.477-10 10-10h4v19.532c0 3.866 3.134 7 7 7z" fill="#94ccd4"/><path d="m504.5 357.67v20.87c0 11.05-15.258 16.113-26.309 16.113l-445.702.142c-11.05 0-20-8.95-20-20l-4.989-17.125z" fill="#5d748a"/></g><g><path d="m471.447 149.489c4.143 0 7.5-3.358 7.5-7.5v-49.947c0-12.407-10.094-22.5-22.5-22.5h-75.947c-12.406 0-22.5 10.093-22.5 22.5v94c0 12.407 10.094 22.5 22.5 22.5h14.5v13.938c0 3.865 2.113 7.407 5.516 9.241 1.563.843 3.276 1.261 4.985 1.261 2.013 0 4.02-.58 5.766-1.728l34.558-22.713h10.623c12.406 0 22.5-10.093 22.5-22.5v-9.053c0-4.142-3.357-7.5-7.5-7.5s-7.5 3.358-7.5 7.5v9.053c0 4.136-3.364 7.5-7.5 7.5h-11.97c-2.056 0-4.051.597-5.767 1.726l-28.711 18.871v-10.096c0-5.79-4.71-10.5-10.5-10.5h-19c-4.136 0-7.5-3.364-7.5-7.5v-94c0-4.136 3.364-7.5 7.5-7.5h75.947c4.136 0 7.5 3.364 7.5 7.5v49.947c0 4.142 3.358 7.5 7.5 7.5z"/><path d="m445.461 101.325h-54.508c-4.143 0-7.5 3.358-7.5 7.5s3.357 7.5 7.5 7.5h54.508c4.143 0 7.5-3.358 7.5-7.5s-3.357-7.5-7.5-7.5z"/><path d="m452.961 139.054c0-4.142-3.357-7.5-7.5-7.5h-54.508c-4.143 0-7.5 3.358-7.5 7.5s3.357 7.5 7.5 7.5h54.508c4.143 0 7.5-3.358 7.5-7.5z"/><path d="m390.953 161.759c-4.143 0-7.5 3.358-7.5 7.5s3.357 7.5 7.5 7.5h32.561c4.143 0 7.5-3.358 7.5-7.5s-3.357-7.5-7.5-7.5z"/><path d="m250.188 205.438h11.623c4.143 0 7.5-3.358 7.5-7.5s-3.357-7.5-7.5-7.5h-11.623c-4.142 0-7.5 3.358-7.5 7.5s3.358 7.5 7.5 7.5z"/><path d="m484.5 31.489h-391.029c-4.142 0-7.5 3.358-7.5 7.5s3.358 7.5 7.5 7.5h391.029c6.893 0 12.5 5.607 12.5 12.5v291.181h-105.136v-20.51c0-9.649-7.851-17.5-17.5-17.5h-12.219l-5.045-26.721c-2.101-11.132-9.211-20.543-19.055-25.698.798-1.65.036-69.986.291-72.055 5.667-5.734 9.172-13.61 9.172-22.29 0-7.328-3.62-13.822-9.152-17.801v-4.435c0-27.716-11.382-50.578-32.05-64.375-3.443-2.3-8.102-1.372-10.402 2.074-2.299 3.445-1.371 8.102 2.074 10.402 15.885 10.46 25.616 29.775 25.378 52.215l-6.394-.033c-21.295-.859-37.662-14.521-40.744-34.028-.806-5.1-4.592-8.736-9.422-9.049-4.7-.315-9.094 2.753-10.421 7.271-3.513 11.957-32.635 35.85-61.657 35.85h-6.075c-.221-38.634 25.683-63.63 67.357-63.487 3.683 0 7.301.191 10.754.569 4.117.448 7.82-2.522 8.271-6.64s-2.521-7.821-6.64-8.271c-3.992-.436-8.159-.658-12.385-.658-25.126 0-46.181 7.761-60.889 22.445-14.044 14.021-21.468 33.286-21.468 55.713v4.448c-5.531 3.981-9.143 10.469-9.143 17.789 0 2.723.345 5.366.993 7.89 1.412 5.498 4.266 10.422 8.13 14.349.313 3.605-.594 68.25.301 72.146-9.808 5.166-16.886 14.556-18.981 25.658l-5.045 26.721h-12.263c-9.649 0-17.5 7.851-17.5 17.5v20.511h-105.135v-291.181c0-6.893 5.607-12.5 12.5-12.5h30.971c4.142 0 7.5-3.358 7.5-7.5s-3.358-7.5-7.5-7.5h-30.971c-15.164 0-27.5 12.336-27.5 27.5v319.552c0 15.164 12.336 27.5 27.5 27.5h193.763l-6.924 21.534h-11.084c-19.54 0-35.436 15.896-35.436 35.436 0 9.649 7.851 17.5 17.5 17.5h141.361c9.649 0 17.5-7.851 17.5-17.5 0-19.54-15.896-35.436-35.436-35.436h-11.084l-6.923-21.534h193.763c15.164 0 27.5-12.336 27.5-27.5v-319.552c0-15.163-12.336-27.5-27.5-27.5zm-110.136 295.671c1.379 0 2.5 1.122 2.5 2.5v20.511h-70.346v-20.511c0-1.378 1.121-2.5 2.5-2.5zm-49.993-168.68 1.229.006c3.81 0 6.908 3.099 6.908 6.909 0 7.825-5.409 14.394-12.679 16.212 2.266-7.269 3.809-15.028 4.542-23.127zm-1.034 37.726v58.125l-13.263-4.405c-.269-.089-.539-.159-.81-.217l-1.895-5.113c-1.289-3.478-4.015-6.231-7.479-7.556-2.701-1.032-5.644-1.105-8.366-.272l-1.357-11.051c9.379-6.976 17.383-16.74 23.333-28.461 3.046-.186 5.307-.079 9.837-1.05zm-83.492 90.201-27.526-22.128 4.523-12.206 29.529 15.591zm2.765 2.223-.004-.003c.001.001.002.002.004.003zm-8.335-44.315 1.519-10.713c6.394 2.531 13.185 3.894 20.228 3.894 6.952 0 13.669-1.346 20.006-3.844l1.271 10.352-21.806 11.513zm59.869 7.758 4.524 12.206-27.526 22.128-6.526-18.743zm-73.008-98.399v5.554c0 4.142 3.358 7.5 7.5 7.5s7.5-3.358 7.5-7.5v-6.477c0-1.864-.684-3.566-1.81-4.878 12.834-6.77 23.607-15.868 30.191-24.526 3.459 8.891 9.116 16.487 16.395 22.322-2.937 1.017-5.049 3.799-5.049 7.082v6.477c0 4.142 3.357 7.5 7.5 7.5s7.5-3.358 7.5-7.5v-6.477c0-.249-.014-.494-.037-.737 5.633 2.822 11.869 4.792 18.551 5.765-2.559 29.389-20.863 63.745-53.356 64.717-30.428-.117-50.831-34.234-53.345-64.47 6.294-.714 12.501-2.241 18.46-4.352zm-22.651 43.58c5.925 11.725 13.903 21.485 23.278 28.457l-1.601 11.291c-2.91-1.076-6.13-1.085-9.065.037-3.464 1.324-6.19 4.078-7.479 7.556l-2.034 5.488-12.96 4.287v-58.177c1.881.542 6.13.936 9.861 1.061zm-12.076-38.768h1.262c.729 8.101 2.261 15.856 4.51 23.121-7.271-1.817-12.681-8.386-12.681-16.213 0-3.809 3.099-6.908 6.909-6.908zm-16.727 129.735c1.464-7.753 7.027-14.11 14.519-16.588l12.857-4.253c.532 2.872 2.065 5.538 4.457 7.461l31.696 25.48c2.245 1.804 5.02 2.755 7.836 2.755 1.151 0 2.309-.159 3.439-.483 3.898-1.118 7.022-4.072 8.356-7.903l2.649-7.608 2.649 7.608c1.334 3.83 4.458 6.785 8.357 7.903 1.131.324 2.287.483 3.438.483 2.816 0 5.592-.952 7.836-2.755l31.697-25.481c2.488-2 4.041-4.806 4.511-7.811l13.859 4.603c7.492 2.478 13.056 8.834 14.519 16.588l4.519 23.939h-37.861c-3.718 0-7.162 1.174-10 3.159-2.838-1.985-6.282-3.159-10-3.159h-65.346c-3.718 0-7.162 1.174-10 3.159-2.838-1.985-6.282-3.159-10-3.159h-38.51zm-34.546 41.439c0-1.378 1.122-2.5 2.5-2.5h66.037c1.378 0 2.5 1.122 2.5 2.5v20.511h-71.037zm173.609 112.915c11.269 0 20.436 9.167 20.436 20.436 0 1.378-1.121 2.5-2.5 2.5h-141.362c-1.378 0-2.5-1.122-2.5-2.5 0-11.269 9.167-20.436 20.436-20.436zm-78.649-15 6.924-21.534h37.961l6.923 21.534zm266.904-49.034c0 6.893-5.607 12.5-12.5 12.5-125.353 0-331.845 0-457 0-6.893 0-12.5-5.607-12.5-12.5v-13.371h223.64c4.142 0 7.5-3.358 7.5-7.5s-3.358-7.5-7.5-7.5h-17.467v-20.51c0-1.378 1.122-2.5 2.5-2.5h65.346c1.379 0 2.5 1.122 2.5 2.5v20.511h-17.426c-4.143 0-7.5 3.358-7.5 7.5s3.357 7.5 7.5 7.5h222.907z"/></g></g></svg>